<svg width="25" height="25" viewBox="0 0 25 25" fill="none" xmlns="http://www.w3.org/2000/svg">
<path d="M12.1094 0C5.41992 0 0 5.41992 0 12.1094C0 16.5088 2.35352 20.3467 5.85938 22.4658V13.6719C5.85938 13.2422 6.21094 12.8906 6.64062 12.8906C7.07031 12.8906 7.42188 13.2422 7.42188 13.6719V23.2764C8.8623 23.8818 10.4492 24.2188 12.1094 24.2188C13.7695 24.2188 15.3564 23.8818 16.7969 23.2764V13.6719C16.7969 13.2422 17.1484 12.8906 17.5781 12.8906C18.0078 12.8906 18.3594 13.2422 18.3594 13.6719V22.4658C21.8652 20.3467 24.2188 16.5039 24.2188 12.1094C24.2188 5.41992 18.7988 0 12.1094 0ZM8.91113 10.5713C8.18848 9.92676 6.65527 9.92676 5.93262 10.5713L5.46875 10.9863C5.2832 11.1475 5.01465 11.1816 4.7998 11.0645C4.58496 10.9473 4.46289 10.7031 4.50195 10.459C4.69727 9.22852 6.17188 8.40332 7.42676 8.40332C8.68164 8.40332 10.1562 9.22852 10.3516 10.459C10.3906 10.7031 10.2686 10.9473 10.0537 11.0645C9.77051 11.2158 9.50684 11.0986 9.38477 10.9863L8.91113 10.5713ZM12.1094 19.9219C10.8154 19.9219 9.76562 18.5205 9.76562 16.7969C9.76562 15.0732 10.8154 13.6719 12.1094 13.6719C13.4033 13.6719 14.4531 15.0732 14.4531 16.7969C14.4531 18.5205 13.4033 19.9219 12.1094 19.9219ZM19.4238 11.0596C19.1406 11.2109 18.877 11.0938 18.7549 10.9814L18.291 10.5664C17.5684 9.92188 16.0352 9.92188 15.3125 10.5664L14.8438 10.9863C14.6582 11.1475 14.3896 11.1816 14.1748 11.0645C13.96 10.9473 13.8379 10.7031 13.877 10.459C14.0723 9.22852 15.5469 8.40332 16.8018 8.40332C18.0566 8.40332 19.5312 9.22852 19.7266 10.459C19.7559 10.6982 19.6387 10.9424 19.4238 11.0596Z" fill="#F8B602"/>
</svg>
